<svg width="56" height="56" viewBox="0 0 56 56" fill="none" xmlns="http://www.w3.org/2000/svg">
<g clip-path="url(#clip0)">
<path d="M14.4394 20.3448C15.4637 19.3204 16.6 18.4758 17.8087 17.8084C24.545 14.0961 33.183 16.0701 37.5137 22.6361L32.273 27.8744C30.7704 24.4468 27.0394 22.4961 23.327 23.3268C21.9294 23.6394 20.6017 24.3371 19.5167 25.4221L9.47402 35.4694C6.42436 38.5191 6.42436 43.4798 9.47402 46.5294C12.5237 49.5791 17.4844 49.5791 20.534 46.5294L23.6304 43.4331C26.4467 44.5508 29.466 44.9964 32.448 44.7748L25.6137 51.6091C19.7547 57.4681 10.2557 57.4681 4.39669 51.6091C-1.46231 45.7501 -1.46231 36.2511 4.39669 30.3921L14.4394 20.3448ZM30.39 4.39409L23.5557 11.2284C26.5354 11.0044 29.557 11.4524 32.3734 12.5678L35.4674 9.47375C38.517 6.42409 43.4777 6.42409 46.5274 9.47375C49.577 12.5234 49.577 17.4841 46.5274 20.5338L36.4824 30.5788C33.4234 33.6378 28.4557 33.6121 25.4224 30.5788C24.7154 29.8718 24.1064 28.9921 23.726 28.1264L18.4854 33.3648C19.036 34.2001 19.6077 34.9211 20.3427 35.6561C22.2374 37.5508 24.65 38.9624 27.4267 39.6321C31.0247 40.4978 34.8794 40.0194 38.1904 38.1924C39.399 37.5251 40.5354 36.6804 41.5597 35.6561L51.6024 25.6111C57.4637 19.7521 57.4637 10.2531 51.6047 4.39409C45.7457 -1.46258 36.249 -1.46258 30.39 4.39409Z" fill="#E5E5E5"/>
</g>
<defs>
<clipPath id="clip0">
<rect width="56" height="56" fill="white"/>
</clipPath>
</defs>
</svg>
