<svg width="56" height="56" viewBox="0 0 56 56" fill="none" xmlns="http://www.w3.org/2000/svg">
<path d="M28 4.66667C40.866 4.66667 51.3333 15.134 51.3333 28C51.3333 40.866 40.866 51.3333 28 51.3333C15.134 51.3333 4.66667 40.866 4.66667 28C4.66667 15.134 15.134 4.66667 28 4.66667ZM28 0C12.537 0 0 12.537 0 28C0 43.463 12.537 56 28 56C43.463 56 56 43.463 56 28C56 12.537 43.463 0 28 0ZM40.8497 32.529C37.3217 35.3173 33.4437 37.0347 28.0023 37.0347C22.5563 37.0347 18.6783 35.3173 15.1503 32.529L14 33.6793C16.6297 37.6927 21.4667 42 28.0023 42C34.5357 42 39.3703 37.6927 42 33.6793L40.8497 32.529ZM19.8333 18.6667C17.9013 18.6667 16.3333 20.2323 16.3333 22.1667C16.3333 24.101 17.9013 25.6667 19.8333 25.6667C21.7653 25.6667 23.3333 24.101 23.3333 22.1667C23.3333 20.2323 21.7653 18.6667 19.8333 18.6667ZM36.1667 18.6667C34.2347 18.6667 32.6667 20.2323 32.6667 22.1667C32.6667 24.101 34.2347 25.6667 36.1667 25.6667C38.0987 25.6667 39.6667 24.101 39.6667 22.1667C39.6667 20.2323 38.0987 18.6667 36.1667 18.6667Z" fill="#E5E5E5"/>
</svg>
