<svg width="56" height="56" viewBox="0 0 56 56" fill="none" xmlns="http://www.w3.org/2000/svg">
<path d="M39.6666 11.6667V39.6667C39.6666 46.0997 34.433 51.3333 28 51.3333C21.567 51.3333 16.3333 46.0997 16.3333 39.6667V11.6667C16.3333 7.80733 19.474 4.66667 23.3333 4.66667C27.1926 4.66667 30.3333 7.80733 30.3333 11.6667V32.6667C30.3333 33.9523 29.2856 35 28 35C26.7143 35 25.6666 33.9523 25.6666 32.6667V14H21V32.6667C21 36.533 24.1336 39.6667 28 39.6667C31.8663 39.6667 35 36.533 35 32.6667V11.6667C35 5.22433 29.7756 0 23.3333 0C16.891 0 11.6666 5.22433 11.6666 11.6667V39.6667C11.6666 48.6873 18.9793 56 28 56C37.0206 56 44.3333 48.6873 44.3333 39.6667V11.6667H39.6666Z" fill="#E5E5E5"/>
</svg>
